<svg height="512pt" viewBox="0 -15 512 512" width="512pt" xmlns="http://www.w3.org/2000/svg"><path d="m413.019531 0c-48.507812 0-88.972656 35.074219-97.378906 81.195312h-273.824219c-17.292968 0-32.167968 10.550782-38.527344 25.558594-2.117187 5-3.289062 10.496094-3.289062 16.261719v13.027344c0 .011719.00390625.023437.00390625.035156v159.78125c0 4.144531 3.35546875 7.5 7.49999975 7.5 4.140625 0 7.5-3.355469 7.5-7.5v-142.910156l163.5 148.023437-155.730468 157.796875c-4.800782-4.851562-7.773438-11.515625-7.773438-18.863281v-109.046875c0-4.144531-3.355469-7.5-7.5-7.5-4.140625 0-7.5 3.355469-7.5 7.5v109.046875c0 14.664062 7.59375 27.582031 19.046875 35.050781.09375.066407.183594.136719.28125.199219.144531.09375.292969.171875.4375.261719 5.707031 3.546875 15.355469 6.308593 22.054687 6.308593h397.941407c22.757812 0 41.820312-18.960937 41.820312-41.820312v-269.617188c18.738281-18.015624 30.417969-43.320312 30.417969-71.308593 0-54.578125-44.402344-98.980469-98.980469-98.980469zm-223.273437 310.933594c14.949218 12.003906 32.992187 18.019531 51.046875 18.019531 18.300781 0 36.601562-6.175781 51.671875-18.511719l153.15625 155.632813c-.074219.019531-.144532.035156-.21875.054687-.28125.058594-.5625.109375-.84375.160156-.167969.03125-.335938.0625-.507813.09375-.359375.054688-.71875.101563-1.078125.148438-.101562.011719-.203125.027344-.300781.035156-.960937.105469-1.933594.160156-2.914063.160156h-397.929687c-1.796875 0-3.574219-.179687-5.3125-.527343zm276.839844 128.972656c0 7.179688-2.839844 13.699219-7.449219 18.519531l-155.46875-157.984375 46.824219-42.394531c3.070312-2.777344 3.304687-7.519531.523437-10.59375-2.777344-3.066406-7.523437-3.304687-10.589844-.523437l-54.875 49.679687c-25.515625 23.101563-64 23.101563-89.519531 0l-181.03125-163.890625v-9.707031c0-3.695313.753906-7.21875 2.109375-10.425781 4.078125-9.621094 13.617187-16.386719 24.707031-16.386719h272.261719c-.023437.925781-.039063 1.851562-.039063 2.78125 0 48.820312 35.523438 89.488281 82.078126 97.53125l-30.585938 27.691406c-3.070312 2.777344-3.304688 7.523437-.523438 10.59375 2.777344 3.070313 7.519532 3.304687 10.589844.523437l41.363282-37.445312c18.230468-.71875 35.207031-6.390625 49.625-15.703125zm-53.566407-256.941406c-46.308593 0-83.984375-37.675782-83.984375-83.984375 0-46.308594 37.675782-83.980469 83.984375-83.980469 46.308594 0 83.980469 37.671875 83.980469 83.980469 0 46.308593-37.671875 83.984375-83.980469 83.984375zm0 0"/><path d="m413.476562 89.589844c16.84375 0 29.984376 7.269531 29.984376 27.304687v2.421875c0 20.925782-13.269532 28.707032-29.730469 28.707032-19.519531 0-30.109375-11.226563-30.109375-23.09375 0-5.867188 3.0625-7.527344 8.292968-7.527344 7.015626 0 8.292969 2.808594 8.292969 6.378906 0 6.253906 5.742188 9.699219 13.140625 9.699219 8.421875 0 13.523438-4.46875 13.523438-14.164063v-2.425781c0-9.695313-5.101563-14.289063-13.394532-14.289063h-18.882812c-5.234375 0-6.636719-2.550781-6.636719-6.507812 0-1.019531.128907-2.167969.128907-3.316406l3.316406-33.558594c.253906-3.1875 1.277344-5.230469 3.1875-5.230469h39.300781c3.316406 0 4.976563 3.699219 4.976563 7.273438 0 3.699219-1.660157 7.269531-4.976563 7.269531h-28.710937l-1.53125 21.054688h9.828124zm0 0"/></svg>